<?xml version="1.0" encoding="utf-8"?>
<!-- Generator: Adobe Illustrator 23.0.2, SVG Export Plug-In . SVG Version: 6.00 Build 0)  -->
<svg version="1.1" id="Camada_1" xmlns="http://www.w3.org/2000/svg" xmlns:xlink="http://www.w3.org/1999/xlink" x="0px" y="0px"
	 viewBox="0 0 141.73 28.35" style="enable-background:new 0 0 141.73 28.35;" xml:space="preserve">
<style type="text/css">
	.st0{fill-rule:evenodd;clip-rule:evenodd;fill:url(#SVGID_1_);}
	.st1{fill-rule:evenodd;clip-rule:evenodd;fill:url(#SVGID_2_);}
	.st2{fill-rule:evenodd;clip-rule:evenodd;fill:url(#SVGID_3_);}
	.st3{fill:#303029;}
</style>
<g>
	<linearGradient id="SVGID_1_" gradientUnits="userSpaceOnUse" x1="25.0663" y1="25.363" x2="25.0663" y2="3.0481">
		<stop  offset="4.950495e-03" style="stop-color:#396A74"/>
		<stop  offset="0.5124" style="stop-color:#568F78"/>
		<stop  offset="1" style="stop-color:#ACBB3C"/>
	</linearGradient>
	<path class="st0" d="M21.78,19.25c-0.4,0.46-0.8,0.92-1.23,1.42c-0.86-0.85-1.72-1.66-2.53-2.51c-1.38-1.47-2.71-2.98-4.08-4.45
		c-0.48-0.51-1.04-0.94-1.57-1.39c-0.11-0.09-0.26-0.14-0.45-0.24c0,0.55-0.06,1.05,0.01,1.53c0.33,2.38,0.9,4.7,2,6.86
		c0.4,0.78,0.86,1.53,1.51,2.14c1.08,1,2.31,1.18,3.62,0.52c1.09-0.55,1.94-1.39,2.73-2.3c1.5-1.71,2.73-3.6,3.96-5.5
		c1.59-2.46,3.16-4.94,4.78-7.38c0.79-1.2,1.69-2.32,2.76-3.29c0.85-0.78,1.82-1.35,2.98-1.54c1.47-0.25,2.72,0.4,3.34,1.76
		c0.44,0.96,0.54,1.99,0.47,3.03c-0.16,2.37-0.93,4.57-2,6.66c-2.94,6.29-8.69,11.62-14.18,8.49c0.42-0.48,0.82-0.95,1.19-1.38
		c0.7,0.19,1.35,0.42,2.02,0.54c1.23,0.23,2.38-0.07,3.44-0.71c1.05-0.63,1.91-1.48,2.64-2.45c2.17-2.9,3.9-6.03,4.79-9.57
		c0.27-1.07,0.41-2.15,0.17-3.25c-0.04-0.17-0.09-0.34-0.16-0.5c-0.29-0.69-0.81-0.95-1.55-0.8c-0.73,0.15-1.34,0.53-1.91,0.98
		c-1.1,0.87-1.99,1.93-2.72,3.11c-1.47,2.37-2.89,4.76-4.35,7.14c-1.32,2.15-2.72,4.24-4.43,6.11c-0.81,0.88-1.7,1.69-2.74,2.3
		c-2.26,1.32-4.59,0.99-6.37-0.94c-1.3-1.42-2.13-3.11-2.72-4.92c-0.57-1.74-1.02-3.51-1.14-5.34c-0.04-0.62,0-1.27,0.15-1.87
		c0.27-1.1,1.23-1.58,2.28-1.16c0.55,0.22,1.1,0.53,1.52,0.93c1.08,1.02,2.12,2.09,3.11,3.19c1.47,1.61,2.92,3.24,4.55,4.69
		C21.7,19.17,21.72,19.2,21.78,19.25z"/>
	<linearGradient id="SVGID_2_" gradientUnits="userSpaceOnUse" x1="23.0061" y1="11.4733" x2="23.0061" y2="2.9835">
		<stop  offset="4.950495e-03" style="stop-color:#396A74"/>
		<stop  offset="0.5124" style="stop-color:#568F78"/>
		<stop  offset="1" style="stop-color:#ACBB3C"/>
	</linearGradient>
	<path class="st1" d="M27,6.38c-0.04,2.49-1.89,4.65-4.26,5.04c-1.8,0.3-3.44-0.92-3.69-2.74c-0.35-2.63,1.54-5.21,4.15-5.65
		c1.89-0.32,3.6,1,3.76,2.91C26.98,6.11,26.99,6.29,27,6.38z M25.37,6.44c0-1.21-0.76-1.93-1.91-1.8c-1.64,0.19-3.12,2.22-2.81,3.84
		c0.18,0.93,0.87,1.45,1.81,1.34C23.98,9.66,25.37,8.03,25.37,6.44z"/>
	<linearGradient id="SVGID_3_" gradientUnits="userSpaceOnUse" x1="8.6093" y1="9.8374" x2="8.6093" y2="5.0668">
		<stop  offset="4.950495e-03" style="stop-color:#396A74"/>
		<stop  offset="0.5124" style="stop-color:#568F78"/>
		<stop  offset="1" style="stop-color:#ACBB3C"/>
	</linearGradient>
	<path class="st2" d="M10.85,6.98c-0.02,1.4-1.06,2.61-2.39,2.83C7.45,9.98,6.53,9.29,6.39,8.27C6.19,6.8,7.26,5.34,8.72,5.09
		c1.06-0.18,2.02,0.56,2.11,1.63C10.84,6.83,10.85,6.92,10.85,6.98z M9.94,7.01c0-0.68-0.43-1.09-1.07-1.01
		C7.95,6.1,7.12,7.24,7.29,8.16c0.1,0.52,0.49,0.81,1.02,0.75C9.16,8.82,9.94,7.9,9.94,7.01z"/>
</g>
<g>
	<g>
		<g>
			<path class="st3" d="M47.05,17.52c-0.15,1.05,0.29,1.57,1.32,1.57h5.27c0.27,0,0.48,0.1,0.63,0.31c0.15,0.21,0.2,0.47,0.16,0.78
				c-0.04,0.34-0.16,0.61-0.35,0.81c-0.19,0.19-0.43,0.29-0.73,0.29h-5.83c-2.33,0-3.33-1.22-3-3.65l1.05-7.51
				c0.15-1.08,0.55-1.95,1.2-2.63c0.65-0.68,1.6-1.02,2.84-1.02h5.27c0.27,0,0.47,0.1,0.62,0.31c0.14,0.21,0.2,0.47,0.17,0.78
				c-0.12,0.72-0.48,1.08-1.08,1.08h-4.71c-1.03,0-1.63,0.52-1.79,1.55l-0.31,2.26h5.92c0.27,0,0.47,0.09,0.59,0.28
				c0.13,0.19,0.17,0.44,0.12,0.75c-0.09,0.67-0.43,1.01-1.01,1.01h-5.92L47.05,17.52z"/>
			<path class="st3" d="M64.76,12.59h0.09l0.31-0.72c0.21-0.48,0.54-0.72,0.99-0.72c0.67,0,0.94,0.46,0.81,1.39l-1.08,7.6
				c-0.1,0.85-0.49,1.28-1.14,1.28c-0.48,0-0.75-0.23-0.83-0.69l-0.09-0.72h-0.07c-1.05,1-2.26,1.5-3.65,1.5
				c-1.3,0-2.28-0.37-2.95-1.12s-1-1.73-1-2.96c0-1.79,0.51-3.29,1.52-4.51s2.34-1.82,3.97-1.82C63.06,11.11,64.1,11.61,64.76,12.59
				z M59.39,14.15c-0.58,0.81-0.86,1.76-0.86,2.84c0,0.82,0.19,1.48,0.56,1.96c0.37,0.49,0.95,0.73,1.73,0.73
				c0.94,0,1.73-0.38,2.36-1.15c0.64-0.77,0.95-1.74,0.95-2.9c0-0.78-0.21-1.42-0.62-1.93c-0.41-0.51-1-0.76-1.76-0.76
				C60.75,12.93,59.97,13.34,59.39,14.15z"/>
			<path class="st3" d="M75.18,11.61c0.39,0.24,0.51,0.59,0.36,1.05c-0.12,0.28-0.29,0.49-0.53,0.62c-0.23,0.13-0.47,0.14-0.71,0.03
				c-0.51-0.25-1.12-0.38-1.84-0.38c-0.97,0-1.46,0.33-1.46,0.99c0,0.22,0.15,0.43,0.44,0.63c0.29,0.19,0.64,0.39,1.05,0.58
				c0.41,0.19,0.82,0.41,1.23,0.64s0.76,0.55,1.05,0.95c0.29,0.4,0.44,0.87,0.44,1.39c0,1.08-0.4,1.91-1.2,2.51
				c-0.8,0.6-1.8,0.9-3.01,0.9c-1.3,0-2.35-0.25-3.14-0.76c-0.39-0.25-0.47-0.6-0.25-1.05c0.12-0.3,0.29-0.5,0.52-0.61
				c0.22-0.1,0.46-0.11,0.7-0.02c0.81,0.39,1.52,0.58,2.15,0.58c1.33,0,1.99-0.41,1.99-1.23c0-0.28-0.15-0.55-0.44-0.8
				c-0.29-0.25-0.65-0.47-1.08-0.66c-0.43-0.19-0.85-0.4-1.27-0.63s-0.77-0.52-1.06-0.89c-0.29-0.37-0.44-0.79-0.44-1.27
				c0-0.96,0.38-1.71,1.13-2.28c0.75-0.56,1.66-0.84,2.72-0.84C73.63,11.07,74.5,11.25,75.18,11.61z"/>
			<path class="st3" d="M78.07,20.35c-0.78-0.78-1.17-1.82-1.17-3.14c0-1.69,0.54-3.14,1.64-4.35s2.45-1.82,4.08-1.82
				c1.12,0,2.01,0.28,2.66,0.83c0.65,0.55,0.97,1.24,0.97,2.06c0,1.02-0.51,1.86-1.54,2.53s-2.37,1.01-4.05,1.01
				c-0.6,0-1.08-0.02-1.43-0.07c-0.02,0.09-0.02,0.18-0.02,0.27c0,0.64,0.23,1.14,0.68,1.48s1.06,0.52,1.83,0.52
				c0.75,0,1.67-0.24,2.76-0.72c0.34-0.15,0.62-0.12,0.84,0.09c0.22,0.21,0.3,0.49,0.26,0.83c-0.04,0.33-0.25,0.6-0.63,0.81
				c-0.96,0.55-2.11,0.83-3.45,0.83C79.99,21.51,78.84,21.13,78.07,20.35z M80.46,13.65c-0.55,0.54-0.91,1.26-1.08,2.17
				c0.3,0.06,0.67,0.09,1.12,0.09c1.06,0,1.91-0.16,2.56-0.48s0.96-0.74,0.96-1.27c0-0.37-0.13-0.69-0.39-0.94
				c-0.26-0.25-0.65-0.38-1.18-0.38C81.68,12.84,81.02,13.11,80.46,13.65z"/>
			<path class="st3" d="M95.38,11.35c0.56,0.19,0.84,0.45,0.84,0.8c0,0.28-0.1,0.55-0.29,0.8s-0.43,0.37-0.72,0.37
				c-0.08,0-0.13-0.01-0.18-0.02c-0.54-0.15-1.04-0.22-1.5-0.22c-1.06,0-1.95,0.34-2.66,1.01s-1.06,1.66-1.06,2.96
				c0,0.82,0.23,1.45,0.69,1.89c0.46,0.44,1.11,0.66,1.93,0.66c0.18,0,0.36-0.01,0.55-0.04c0.19-0.03,0.34-0.06,0.46-0.09
				c0.12-0.03,0.29-0.07,0.5-0.13c0.22-0.06,0.38-0.1,0.5-0.13c0.3-0.07,0.53-0.02,0.68,0.17c0.16,0.19,0.24,0.39,0.26,0.62
				c0.04,0.52-0.27,0.92-0.95,1.18c-0.68,0.26-1.5,0.39-2.46,0.39c-1.49,0-2.62-0.42-3.36-1.26s-1.12-1.92-1.12-3.25
				c0-1.73,0.56-3.16,1.68-4.28c1.12-1.12,2.54-1.68,4.26-1.68C94.17,11.07,94.82,11.16,95.38,11.35z"/>
			<path class="st3" d="M104.93,12.59h0.09l0.31-0.72c0.21-0.48,0.54-0.72,0.99-0.72c0.67,0,0.94,0.46,0.81,1.39l-1.08,7.6
				c-0.1,0.85-0.49,1.28-1.14,1.28c-0.48,0-0.75-0.23-0.83-0.69l-0.09-0.72h-0.07c-1.05,1-2.26,1.5-3.65,1.5
				c-1.3,0-2.28-0.37-2.95-1.12s-1-1.73-1-2.96c0-1.79,0.51-3.29,1.52-4.51c1.02-1.21,2.34-1.82,3.97-1.82
				C103.24,11.11,104.28,11.61,104.93,12.59z M99.57,14.15c-0.58,0.81-0.86,1.76-0.86,2.84c0,0.82,0.19,1.48,0.56,1.96
				c0.37,0.49,0.95,0.73,1.73,0.73c0.94,0,1.73-0.38,2.36-1.15c0.64-0.77,0.95-1.74,0.95-2.9c0-0.78-0.21-1.42-0.62-1.93
				c-0.41-0.51-1-0.76-1.76-0.76C100.93,12.93,100.14,13.34,99.57,14.15z"/>
			<path class="st3" d="M111.97,12.88c0.48-0.6,1.05-1.05,1.73-1.37s1.25-0.47,1.75-0.47c0.24,0,0.47,0.09,0.68,0.27
				c0.22,0.18,0.3,0.49,0.24,0.92c-0.07,0.55-0.42,0.88-1.03,0.99c-1.12,0.19-2.01,0.58-2.66,1.17c-0.65,0.58-1.05,1.43-1.2,2.53
				l-0.4,2.91c-0.07,0.52-0.21,0.92-0.4,1.18c-0.19,0.26-0.53,0.39-1.01,0.39c-0.37,0-0.65-0.09-0.82-0.28
				c-0.17-0.19-0.24-0.44-0.19-0.77l1.05-7.37c0.04-0.39,0.09-0.68,0.15-0.89c0.05-0.2,0.17-0.4,0.37-0.6s0.46-0.3,0.79-0.3
				c0.54,0,0.83,0.28,0.87,0.85l0.02,0.85H111.97z"/>
			<path class="st3" d="M126.98,15.6c-0.1,0.78-0.28,1.49-0.54,2.15c-0.25,0.66-0.61,1.28-1.05,1.87s-1.05,1.05-1.8,1.39
				c-0.75,0.34-1.63,0.5-2.61,0.5c-1.42,0-2.52-0.4-3.31-1.21c-0.79-0.81-1.18-1.84-1.18-3.09c0-1.81,0.54-3.29,1.64-4.44
				c1.09-1.15,2.41-1.73,3.97-1.73c1.31,0,2.29,0.41,2.94,1.23l0.09-0.04l0.81-6.07c0.04-0.33,0.18-0.59,0.42-0.8
				c0.23-0.2,0.53-0.3,0.88-0.3c0.66,0,0.99,0.31,0.99,0.94v0.2L126.98,15.6z M123.68,18.47c0.62-0.78,0.93-1.72,0.93-2.82
				c0-0.78-0.22-1.42-0.66-1.93c-0.44-0.51-1.05-0.76-1.83-0.76c-0.96,0-1.74,0.4-2.35,1.2c-0.61,0.8-0.92,1.74-0.92,2.84
				c0,0.81,0.2,1.45,0.6,1.93c0.4,0.48,1.01,0.72,1.82,0.72C122.25,19.63,123.06,19.24,123.68,18.47z"/>
		</g>
	</g>
	<g>
		<g>
			<path class="st3" d="M131.79,3.79c1.19,0,2.16,0.97,2.16,2.16c0,1.2-0.97,2.17-2.16,2.17c-1.19,0-2.17-0.97-2.17-2.17
				C129.62,4.76,130.59,3.8,131.79,3.79z M131.78,4.08c-1.04,0-1.88,0.85-1.88,1.88c0,1.03,0.85,1.88,1.88,1.88
				c1.04,0,1.88-0.84,1.88-1.88C133.67,4.92,132.83,4.08,131.78,4.08z"/>
			<path class="st3" d="M131.37,6.28c0,0.25,0,0.48,0,0.71c-0.13,0-0.26,0-0.4,0c0-0.71,0-1.42,0-2.14c0.02,0,0.04-0.01,0.05-0.01
				c0.35,0,0.7-0.01,1.05,0.01c0.43,0.02,0.73,0.36,0.69,0.77c-0.03,0.33-0.2,0.54-0.54,0.62c0.22,0.25,0.44,0.5,0.67,0.76
				c-0.18,0-0.33,0-0.48,0c-0.03,0-0.05-0.04-0.08-0.06c-0.17-0.2-0.34-0.39-0.51-0.59c-0.04-0.05-0.09-0.07-0.16-0.07
				C131.57,6.28,131.48,6.28,131.37,6.28z M131.37,5.91c0.24,0,0.48,0.01,0.71,0c0.16-0.01,0.27-0.15,0.28-0.32
				c0.01-0.16-0.09-0.33-0.24-0.34c-0.25-0.02-0.5-0.01-0.75-0.01C131.37,5.46,131.37,5.68,131.37,5.91z"/>
		</g>
	</g>
</g>
</svg>
